<?xml version="1.0" encoding="utf-8"?>
<svg fill="none" height="1172" viewBox="0 0 1440 1172" width="1440" xmlns="http://www.w3.org/2000/svg">
<g filter="url(#filter0_f_62_352)" opacity="0.8">
<path d="M1500.08 266.303C1500.08 452.147 910.424 971.803 724.58 971.803C538.737 971.803 388.08 821.146 388.08 635.303C388.08 449.459 26.2366 344.303 212.08 344.303C397.924 344.303 1500.08 80.4589 1500.08 266.303Z" fill="url(#paint0_radial_62_352)"/>
</g>
<g filter="url(#filter1_f_62_352)" opacity="0.8">
<path d="M851.46 618.226C851.46 657.469 984.488 790 864.379 790C744.27 790 489 777.333 489 738.09C489 698.846 597.133 738.089 717.242 738.089C837.35 738.089 851.46 578.983 851.46 618.226Z" fill="white"/>
</g>
<defs>
<filter color-interpolation-filters="sRGB" filterUnits="userSpaceOnUse" height="1171.8" id="filter0_f_62_352" width="1741.08" x="-41" y="0">
<feFlood flood-opacity="0" result="BackgroundImageFix"/>
<feBlend in="SourceGraphic" in2="BackgroundImageFix" mode="normal" result="shape"/>
<feGaussianBlur result="effect1_foregroundBlur_62_352" stdDeviation="100"/>
</filter>
<filter color-interpolation-filters="sRGB" filterUnits="userSpaceOnUse" height="292.839" id="filter1_f_62_352" width="540.444" x="431.581" y="554.581">
<feFlood flood-opacity="0" result="BackgroundImageFix"/>
<feBlend in="SourceGraphic" in2="BackgroundImageFix" mode="normal" result="shape"/>
<feGaussianBlur result="effect1_foregroundBlur_62_352" stdDeviation="28.7097"/>
</filter>
<radialGradient cx="0" cy="0" gradientTransform="translate(727.5 721.5) rotate(110.575) scale(173.572 173.572)" gradientUnits="userSpaceOnUse" id="paint0_radial_62_352" r="1">
<stop offset="0.485811" stop-color="#014A7F"/>
<stop offset="1" stop-color="#014A7F"/>
</radialGradient>
</defs>
</svg>